<svg width="24" height="24" viewBox="0 0 24 24" fill="none" xmlns="http://www.w3.org/2000/svg">
<path d="M5.063 3.063C9.14701 -1.021 15.7685 -1.021 19.8525 3.063C23.9365 7.14701 23.9365 13.7685 19.8525 17.8525L18.4269 19.2624C17.3761 20.2936 16.0128 21.6196 14.3363 23.2404C13.2888 24.2533 11.6268 24.2532 10.5794 23.2401L6.38638 19.1615C5.85942 18.6441 5.41832 18.2078 5.063 17.8525C0.978999 13.7685 0.978999 7.14701 5.063 3.063ZM18.5786 4.33689C15.1982 0.956427 9.71734 0.956427 6.33689 4.33689C2.95643 7.71734 2.95643 13.1982 6.33689 16.5786L8.12291 18.3411C9.10645 19.3036 10.3429 20.5051 11.8318 21.9452C12.1809 22.2828 12.7348 22.2829 13.0841 21.9453L17.1615 17.9801C17.7247 17.4272 18.1971 16.96 18.5786 16.5786C21.959 13.1982 21.959 7.71734 18.5786 4.33689ZM12.4578 7.18332C14.4487 7.18332 16.0627 8.79732 16.0627 10.7883C16.0627 12.7792 14.4487 14.3932 12.4578 14.3932C10.4668 14.3932 8.85279 12.7792 8.85279 10.7883C8.85279 8.79732 10.4668 7.18332 12.4578 7.18332ZM12.4578 8.98487C11.4618 8.98487 10.6543 9.79228 10.6543 10.7883C10.6543 11.7843 11.4618 12.5916 12.4578 12.5916C13.4538 12.5916 14.2611 11.7843 14.2611 10.7883C14.2611 9.79228 13.4538 8.98487 12.4578 8.98487Z" fill="#69C5D3"/>
</svg>
