<svg width="183" height="54" viewBox="0 0 183 54" fill="none" xmlns="http://www.w3.org/2000/svg">
<g clip-path="url(#clip0_859_258)">
<path fill-rule="evenodd" clip-rule="evenodd" d="M112.956 42.2297C102.379 49.905 87.0496 54 73.851 54C55.3444 54 38.6837 47.2608 26.0792 36.052C25.0889 35.1706 25.9762 33.9694 27.1646 34.6558C40.7673 42.4481 57.5864 47.136 74.9601 47.136C86.6772 47.136 99.5669 44.7491 111.419 39.7961C113.209 39.0473 114.706 40.9505 112.956 42.2297Z" fill="#585858"/>
<path fill-rule="evenodd" clip-rule="evenodd" d="M117.355 37.2765C116.008 35.5761 108.418 36.4731 105.012 36.8709C103.974 36.9957 103.815 36.1065 104.75 35.4669C110.795 31.2783 120.714 32.4873 121.87 33.8913C123.027 35.3031 121.569 45.0922 115.889 49.7645C115.018 50.4821 114.186 50.0999 114.574 49.1483C115.849 46.0126 118.709 38.9848 117.355 37.2765Z" fill="#585858"/>
<path fill-rule="evenodd" clip-rule="evenodd" d="M105.249 5.89691V1.82526C105.249 1.20906 105.724 0.795654 106.295 0.795654H124.809C125.403 0.795654 125.879 1.21686 125.879 1.82526V5.3119C125.871 5.89691 125.372 6.66131 124.484 7.87033L114.89 21.3567C118.456 21.2709 122.219 21.7935 125.451 23.5875C126.18 23.9931 126.378 24.5859 126.433 25.1709V29.5156C126.433 30.1084 125.768 30.8026 125.071 30.4438C119.375 27.5031 111.809 27.1833 105.51 30.475C104.869 30.8182 104.195 30.1318 104.195 29.539V25.4127C104.195 24.7497 104.203 23.6187 104.877 22.6125L115.992 6.91872H106.318C105.724 6.91872 105.249 6.50532 105.249 5.89691Z" fill="#585858"/>
<path fill-rule="evenodd" clip-rule="evenodd" d="M37.7092 31.3017H32.0765C31.5377 31.2627 31.1099 30.8649 31.0703 30.3579V1.89537C31.0703 1.32597 31.5536 0.873557 32.1557 0.873557H37.4082C37.9548 0.896941 38.3906 1.31036 38.4302 1.82516V5.54581H38.5332C39.9037 1.94997 42.4785 0.272949 45.9485 0.272949C49.4739 0.272949 51.6763 1.94997 53.2608 5.54581C54.6234 1.94997 57.7211 0.272949 61.0405 0.272949C63.4014 0.272949 65.9841 1.23236 67.5606 3.38518C69.3432 5.77981 68.9787 9.25864 68.9787 12.3085L68.9708 30.2721C68.9708 30.8415 68.4875 31.3017 67.8855 31.3017H62.2606C61.6981 31.2627 61.2465 30.8181 61.2465 30.2721V15.1867C61.2465 13.9855 61.3574 10.9903 61.0881 9.85145C60.6682 7.94043 59.4085 7.40222 57.7765 7.40222C56.4139 7.40222 54.9879 8.29923 54.4095 9.73445C53.8312 11.1697 53.8867 13.5721 53.8867 15.1867V30.2721C53.8867 30.8415 53.4034 31.3017 52.8013 31.3017H47.1764C46.606 31.2627 46.1624 30.8181 46.1624 30.2721L46.1545 15.1867C46.1545 12.0121 46.6853 7.33982 42.6845 7.33982C38.6362 7.33982 38.7946 11.8951 38.7946 15.1867V30.2721C38.7946 30.8415 38.3113 31.3017 37.7092 31.3017Z" fill="#585858"/>
<path fill-rule="evenodd" clip-rule="evenodd" d="M141.816 0.272949C150.174 0.272949 154.698 7.33982 154.698 16.3255C154.698 25.007 149.699 31.8945 141.816 31.8945C133.609 31.8945 129.141 24.8276 129.141 16.0213C129.141 7.16042 133.664 0.272949 141.816 0.272949ZM141.864 6.08401C137.713 6.08401 137.451 11.6533 137.451 15.1243C137.451 18.6031 137.396 26.0288 141.816 26.0288C146.182 26.0288 146.388 20.0384 146.388 16.3879C146.388 13.9855 146.285 11.1151 145.548 8.83744C144.914 6.85622 143.654 6.08401 141.864 6.08401Z" fill="#585858"/>
<path fill-rule="evenodd" clip-rule="evenodd" d="M165.537 31.3017H159.928C159.366 31.2627 158.914 30.8181 158.914 30.2721L158.906 1.80176C158.954 1.27916 159.421 0.873557 159.992 0.873557H165.212C165.704 0.896941 166.108 1.22456 166.219 1.66917V6.02161H166.322C167.898 2.12937 170.108 0.272949 173.998 0.272949C176.526 0.272949 178.989 1.16996 180.574 3.62698C182.047 5.90461 182.047 9.73445 182.047 12.4879V30.4047C181.984 30.9039 181.517 31.3017 180.962 31.3017H175.313C174.798 31.2627 174.371 30.8883 174.315 30.4047V14.9449C174.315 11.8327 174.68 7.27742 170.79 7.27742C169.419 7.27742 168.16 8.18223 167.534 9.55504C166.741 11.2945 166.638 13.0261 166.638 14.9449V30.2721C166.631 30.8415 166.139 31.3017 165.537 31.3017Z" fill="#585858"/>
<path fill-rule="evenodd" clip-rule="evenodd" d="M90.4879 17.7062C90.4879 19.8668 90.5434 21.6686 89.4343 23.5874C88.539 25.1475 87.113 26.1069 85.5365 26.1069C83.3737 26.1069 82.1061 24.4845 82.1061 22.0898C82.1061 17.363 86.4079 16.505 90.4879 16.505V17.7062ZM96.1683 31.2237C95.7959 31.5513 95.2572 31.5747 94.8373 31.3563C92.9676 29.8275 92.627 29.1177 91.605 27.6591C88.5153 30.7635 86.3208 31.6917 82.32 31.6917C77.5745 31.6917 73.8906 28.8135 73.8906 23.0492C73.8906 18.5486 76.3624 15.4832 79.8958 13.9855C82.9538 12.6595 87.2239 12.4255 90.4879 12.0589V11.3413C90.4879 10.0231 90.5909 8.46309 89.7987 7.32428C89.1174 6.30247 87.8023 5.88126 86.6377 5.88126C84.4907 5.88126 82.5814 6.96547 82.114 9.21189C82.0189 9.7111 81.6466 10.2025 81.1316 10.2259L75.6732 9.6487C75.2137 9.5473 74.6987 9.18069 74.8334 8.48649C76.0851 1.96563 82.0744 0 87.4299 0C90.171 0 93.7519 0.717609 95.9147 2.76123C98.6559 5.28065 98.3944 8.64249 98.3944 12.3007V20.9432C98.3944 23.5406 99.4877 24.6795 100.518 26.0835C100.874 26.5827 100.953 27.1833 100.494 27.5577C99.3451 28.5015 97.3011 30.2565 96.1762 31.2393L96.1683 31.2237Z" fill="#585858"/>
<path fill-rule="evenodd" clip-rule="evenodd" d="M16.6442 17.7062C16.6442 19.8668 16.6996 21.6686 15.5905 23.5874C14.6953 25.1475 13.2772 26.1069 11.6927 26.1069C9.52992 26.1069 8.27027 24.4845 8.27027 22.0898C8.27027 17.363 12.5721 16.505 16.6442 16.505V17.7062ZM22.3245 31.2237C21.9522 31.5513 21.4134 31.5747 20.9935 31.3563C19.1239 29.8275 18.7911 29.1177 17.7612 27.6591C14.6715 30.7635 12.485 31.6917 8.47624 31.6917C3.73868 31.6917 0.046875 28.8135 0.046875 23.0492C0.046875 18.5486 2.52657 15.4832 6.05201 13.9855C9.11003 12.6595 13.3802 12.4255 16.6442 12.0589V11.3413C16.6442 10.0231 16.7472 8.46309 15.9629 7.32428C15.2736 6.30247 13.9585 5.88126 12.8018 5.88126C10.6549 5.88126 8.73768 6.96547 8.27027 9.21189C8.1752 9.7111 7.80285 10.2025 7.29582 10.2259L1.8294 9.6487C1.36991 9.5473 0.862875 9.18069 0.989633 8.48649C2.24929 1.96563 8.23065 0 13.5862 0C16.3273 0 19.9082 0.717609 22.071 2.76123C24.8121 5.28065 24.5507 8.64249 24.5507 12.3007V20.9432C24.5507 23.5406 25.644 24.6795 26.6739 26.0835C27.0383 26.5827 27.1175 27.1833 26.658 27.5577C25.5093 28.5015 23.4653 30.2565 22.3403 31.2393L22.3245 31.2237Z" fill="#585858"/>
</g>
<defs>
<clipPath id="clip0_859_258">
<rect width="182" height="54" fill="white" transform="translate(0.046875)"/>
</clipPath>
</defs>
</svg>
