<svg width="101" height="58" viewBox="0 0 101 58" fill="none" xmlns="http://www.w3.org/2000/svg">
<g clip-path="url(#clip0_859_435)">
<path d="M80.1176 42.0967H100.047V57.9999H79.9997L75.0469 53.3225V46.7741L80.1176 42.0967Z" fill="#585858"/>
<path d="M17.9714 12.5121L18.3252 12.3952C18.561 12.2783 18.9148 12.0444 19.2686 11.8105C19.6223 11.5767 19.9761 11.2259 20.3299 10.875C20.6837 10.5242 20.9195 10.0565 21.2733 9.35489C21.5091 8.77021 21.6271 8.0686 21.6271 7.36698C21.6271 5.61295 20.8016 3.97585 19.1507 2.68956C17.4997 1.40327 15.2591 0.70166 12.429 0.70166H0.046875V25.7259H13.1365C16.4384 25.7259 23.3959 25.1412 23.3959 18.5928C23.3959 13.5646 18.0893 12.5121 17.9714 12.5121ZM8.18367 6.54843H11.2497C11.8393 6.54843 12.311 6.66537 12.7827 7.13311C13.1365 7.48392 13.3723 7.95166 13.3723 8.4194C13.3723 8.88714 13.1365 9.35489 12.7827 9.70569C12.311 10.0565 11.8393 10.2904 11.2497 10.2904H8.18367V6.54843ZM13.844 19.2944C13.3723 19.7621 12.7827 19.996 12.0752 19.996H8.18367V15.5525H12.0752C12.7827 15.5525 13.3723 15.7863 13.844 16.2541C14.3157 16.7218 14.5516 17.1896 14.5516 17.8912C14.5516 18.3589 14.3157 18.8267 13.844 19.2944Z" fill="#585858"/>
<path d="M24.4558 40.2258L24.8096 40.1088C25.0454 39.9919 25.3992 39.758 25.7529 39.5242C26.1067 39.2903 26.4605 38.9395 26.8143 38.5887C27.168 38.2379 27.4039 37.7701 27.7577 37.0685C27.9935 36.4838 28.1114 35.7822 28.1114 35.0806C28.1114 33.3266 27.286 31.6895 25.635 30.4032C23.9841 29.1169 21.7435 28.4153 18.9133 28.4153H6.53125V53.4395H19.5029C22.8048 53.4395 29.7624 52.8548 29.7624 46.3064C29.8803 41.2782 24.5737 40.3427 24.4558 40.2258ZM14.786 34.2621H17.7341C18.3237 34.2621 18.7954 34.4959 19.2671 34.8467C19.6209 35.1975 19.8567 35.6653 19.8567 36.133C19.8567 36.6008 19.6209 37.0685 19.2671 37.4193C18.9133 37.7701 18.4416 38.004 17.7341 38.004H14.786V34.2621ZM20.3284 47.008C19.8567 47.4758 19.2671 47.7096 18.5596 47.7096H14.786V43.2661H18.5596C19.2671 43.2661 19.8567 43.5 20.3284 43.9677C20.8001 44.4354 21.036 44.9032 21.036 45.6048C21.036 46.0725 20.8001 46.5403 20.3284 47.008Z" fill="#585858"/>
<path d="M44.2681 19.6452H32.1219V15.7863H42.0276V10.0565H32.1219V6.78231H44.2681V0.70166H23.8672V25.7259H44.2681V19.6452Z" fill="#585858"/>
<path d="M65.1406 0.70166V6.78231H71.8623V25.7259H79.9991V6.78231H86.6029V0.70166H65.1406Z" fill="#585858"/>
<path d="M55.9426 19.2944C55.4709 19.6452 54.8813 19.879 54.0558 19.879C53.2303 19.879 52.4048 19.6452 51.5794 19.1774C50.7539 18.7097 50.1643 18.3589 49.8105 18.125C49.6926 18.0081 49.4567 17.8911 49.3388 17.7742L44.5039 22.3347L44.8577 22.6855C45.0935 23.0363 45.5652 23.3871 46.1548 23.7379C46.7445 24.2056 47.452 24.5565 48.2775 25.0242C49.103 25.4919 50.0464 25.8427 51.3435 26.0766C52.5228 26.4274 53.8199 26.5444 55.1171 26.5444C58.3011 26.5444 60.8954 25.7258 62.7822 24.0887C64.669 22.4516 65.6124 20.4637 65.6124 18.125C65.6124 16.8387 65.3765 15.5524 64.7869 14.6169C64.1973 13.5645 63.6077 12.8629 62.7822 12.2782C61.9567 11.8105 61.1313 11.3427 60.1879 10.875C59.3624 10.5242 58.5369 10.1734 57.7115 10.0565C57.5935 10.0565 57.5935 10.0565 57.4756 10.0565C56.6501 9.82258 55.9426 9.58871 55.4709 9.2379C54.8813 8.8871 54.6454 8.65323 54.6454 8.18548C54.6454 7.71774 54.8813 7.36694 55.235 7.01613C55.5888 6.66532 56.1784 6.54839 56.886 6.54839C58.5369 6.54839 59.5982 7.25 60.0699 7.83468L64.9048 3.27419L64.7869 3.15726C64.5511 2.92339 64.1973 2.57258 63.7256 2.22177C63.2539 1.87097 62.6643 1.52016 61.9567 1.16936C61.2492 0.818549 60.4237 0.467742 59.2445 0.233871C58.0652 0.116936 56.886 0 55.7067 0C52.6407 0 50.2822 0.818549 48.3954 2.33871C46.5086 3.97581 45.5652 5.84678 45.5652 7.95161C45.5652 9.12097 45.8011 10.1734 46.1548 10.9919C46.5086 11.9274 47.0982 12.629 47.6879 13.2137C48.2775 13.7984 48.985 14.2661 49.8105 14.6169C50.5181 14.9677 51.1077 15.2016 51.8152 15.4355C51.9332 15.4355 52.0511 15.5524 52.169 15.5524C52.9945 15.7863 53.702 16.0202 54.2916 16.254C54.8813 16.4879 55.4709 16.7218 55.8247 16.9556C56.1784 17.1895 56.4143 17.5403 56.4143 17.7742C56.6501 18.4758 56.4143 18.9436 55.9426 19.2944Z" fill="#585858"/>
<path d="M44.2689 43.2661C44.2689 44.9032 42.9717 46.3064 41.2028 46.3064C39.5519 46.3064 38.1368 45.0201 38.1368 43.2661V28.4153H30V42.9153C30 48.879 34.8349 53.7903 40.967 53.7903H41.4387C47.4528 53.7903 52.4057 48.9959 52.4057 42.9153V28.4153H44.2689V43.2661Z" fill="#585858"/>
<path d="M66.3223 36.9516L61.0157 28.4153H52.8789L62.3129 44.5524V53.4395H70.4497V44.5524L79.8836 28.4153H71.7468L66.3223 36.9516Z" fill="#585858"/>
<path d="M79.0548 50.0483C79.0548 50.633 78.5831 50.9838 78.1114 50.9838C77.6397 50.9838 77.168 50.516 77.168 50.0483C77.168 49.4636 77.6397 49.1128 78.1114 49.1128C78.5831 49.1128 79.0548 49.4636 79.0548 50.0483Z" fill="#585858"/>
<path d="M80.117 35.6653H79.5273V35.4314H80.9424V35.6653H80.3528V37.4193H80.117V35.6653ZM81.2962 35.4314H81.65L82.2396 36.9516L82.8292 35.4314H83.183V37.3024H82.9472V35.6653L82.2396 37.3024H82.1217L81.4141 35.6653V37.3024H81.1783V35.4314H81.2962Z" fill="#585858"/>
</g>
<defs>
<clipPath id="clip0_859_435">
<rect width="100" height="58" fill="white" transform="translate(0.046875)"/>
</clipPath>
</defs>
</svg>
