<svg width="24" height="23" viewBox="0 0 24 23" fill="none" xmlns="http://www.w3.org/2000/svg">
<path d="M4.017 16.341C4.1727 16.4973 4.292 16.686 4.36641 16.8937C4.44082 17.1014 4.46851 17.3229 4.4475 17.5425C4.34208 18.5589 4.14221 19.5632 3.8505 20.5425C5.943 20.058 7.221 19.497 7.8015 19.203C8.13076 19.0362 8.50993 18.9967 8.8665 19.092C9.88865 19.3645 10.9421 19.5017 12 19.5C17.994 19.5 22.5 15.2895 22.5 10.5C22.5 5.712 17.994 1.5 12 1.5C6.006 1.5 1.5 5.712 1.5 10.5C1.5 12.702 2.4255 14.745 4.017 16.341ZM3.2775 22.1985C2.9221 22.269 2.56555 22.3335 2.208 22.392C1.908 22.44 1.68 22.128 1.7985 21.849C1.93169 21.5349 2.05376 21.2162 2.1645 20.8935L2.169 20.8785C2.541 19.7985 2.844 18.5565 2.955 17.4C1.1145 15.555 0 13.14 0 10.5C0 4.701 5.373 0 12 0C18.627 0 24 4.701 24 10.5C24 16.299 18.627 21 12 21C10.8115 21.0016 9.62788 20.8473 8.4795 20.541C7.6995 20.9355 6.021 21.654 3.2775 22.1985Z" fill="#69C5D3"/>
</svg>
