<svg width="193" height="193" viewBox="0 0 193 193" fill="none" xmlns="http://www.w3.org/2000/svg">
<path d="M96.6263 0.746338C115.7 0.746338 134.338 6.44828 150.147 17.1198C165.955 27.7914 178.213 42.9452 185.345 60.6351C192.477 78.325 194.158 97.7431 190.172 116.395C186.186 135.048 176.715 152.083 162.975 165.312C149.236 178.542 131.855 187.362 113.065 190.639C94.2751 193.917 74.9344 191.503 57.527 183.707C40.1196 175.911 25.4402 163.089 15.3742 146.888C5.3082 130.686 0.315288 111.846 1.03671 92.7863L5.78324 92.9659C5.09764 111.079 9.84262 128.984 19.4088 144.381C28.9749 159.777 42.9254 171.963 59.4685 179.372C76.0116 186.781 94.3918 189.075 112.249 185.96C130.105 182.845 146.623 174.463 159.681 161.89C172.738 149.318 181.739 133.129 185.527 115.403C189.315 97.6766 187.718 79.2227 180.94 62.4112C174.162 45.5998 162.513 31.1984 147.489 21.0567C132.465 10.9151 114.753 5.49626 96.6263 5.49626V0.746338Z" fill="#69C5D3"/>
<path d="M97.6246 0.751547C85.0633 0.620446 72.5992 2.96476 60.9439 7.65064C49.2886 12.3365 38.6703 19.2722 29.6954 28.0617C20.7206 36.8512 13.5648 47.3223 8.63664 58.8773C3.70852 70.4323 1.10457 82.8447 0.973471 95.4061L5.72314 95.4556C5.84773 83.5181 8.32238 71.7219 13.0058 60.7407C17.6892 49.7595 24.4897 39.8083 33.0189 31.4553C41.5481 23.1022 51.6391 16.5109 62.7157 12.0577C73.7922 7.60453 85.6375 5.37662 97.575 5.50121L97.6246 0.751547Z" fill="white"/>
<g clip-path="url(#clip0_67_1109)">
<path d="M101.129 84.0133L99.0623 91.267L106.657 91.2668C108.341 91.2667 109.261 93.2313 108.183 94.5252L94.9798 110.369C93.5283 112.111 90.7319 110.613 91.3777 108.44L93.5288 101.2H85.7974C84.1112 101.2 83.1917 99.2317 84.2738 97.9384L97.5232 82.103C98.9685 80.3758 101.746 81.8475 101.129 84.0133ZM86.3 58.9833C86.3 57.6118 85.1882 56.5 83.8167 56.5C82.4452 56.5 81.3333 57.6118 81.3333 58.9833V66.4333H78.85C71.9925 66.4333 66.4333 71.9925 66.4333 78.85V81.3333H58.9833C57.6118 81.3333 56.5 82.4452 56.5 83.8167C56.5 85.1882 57.6118 86.3 58.9833 86.3H66.4333V93.75H58.9833C57.6118 93.75 56.5 94.8618 56.5 96.2333C56.5 97.6046 57.6118 98.7167 58.9833 98.7167H66.4333V106.167H58.9833C57.6118 106.167 56.5 107.279 56.5 108.65C56.5 110.021 57.6118 111.133 58.9833 111.133H66.4333V113.617C66.4333 120.474 71.9925 126.033 78.85 126.033H81.3333V133.483C81.3333 134.855 82.4452 135.967 83.8167 135.967C85.1882 135.967 86.3 134.855 86.3 133.483V126.033H93.75V133.483C93.75 134.855 94.8618 135.967 96.2333 135.967C97.6046 135.967 98.7167 134.855 98.7167 133.483V126.033H106.167V133.483C106.167 134.855 107.279 135.967 108.65 135.967C110.021 135.967 111.133 134.855 111.133 133.483V126.033H113.617C120.474 126.033 126.033 120.474 126.033 113.617V111.133H133.483C134.855 111.133 135.967 110.021 135.967 108.65C135.967 107.279 134.855 106.167 133.483 106.167H126.033V98.7167H133.483C134.855 98.7167 135.967 97.6046 135.967 96.2333C135.967 94.8618 134.855 93.75 133.483 93.75H126.033V86.3H133.483C134.855 86.3 135.967 85.1882 135.967 83.8167C135.967 82.4452 134.855 81.3333 133.483 81.3333H126.033V78.85C126.033 71.9925 120.474 66.4333 113.617 66.4333H111.133V58.9833C111.133 57.6118 110.021 56.5 108.65 56.5C107.279 56.5 106.167 57.6118 106.167 58.9833V66.4333H98.7167V58.9833C98.7167 57.6118 97.6046 56.5 96.2333 56.5C94.8618 56.5 93.75 57.6118 93.75 58.9833V66.4333H86.3V58.9833ZM113.617 71.4C117.731 71.4 121.067 74.7355 121.067 78.85V113.617C121.067 117.731 117.731 121.067 113.617 121.067H78.85C74.7355 121.067 71.4 117.731 71.4 113.617V78.85C71.4 74.7355 74.7355 71.4 78.85 71.4H113.617Z" fill="#222222"/>
</g>
<defs>
<clipPath id="clip0_67_1109">
<rect width="79.4667" height="79.4667" fill="white" transform="translate(56.4995 56.5)"/>
</clipPath>
</defs>
</svg>
