<svg width="24" height="18" viewBox="0 0 24 18" fill="none" xmlns="http://www.w3.org/2000/svg">
<path d="M21.75 18H2.25C1.005 18 0 16.995 0 15.75V2.25C0 1.005 1.005 0 2.25 0H21.75C22.995 0 24 1.005 24 2.25V15.75C24 16.995 22.995 18 21.75 18ZM2.25 1.5C1.83 1.5 1.5 1.83 1.5 2.25V15.75C1.5 16.17 1.83 16.5 2.25 16.5H21.75C22.17 16.5 22.5 16.17 22.5 15.75V2.25C22.5 1.83 22.17 1.5 21.75 1.5H2.25Z" fill="#69C5D3"/>
<path d="M12.0011 11.9402C10.9511 11.9402 9.99111 11.5202 9.2711 10.7552L1.39611 2.38518C1.11111 2.08518 1.12611 1.60518 1.42611 1.32018C1.72611 1.03518 2.20611 1.05018 2.49111 1.35018L10.3661 9.72018C11.2211 10.6352 12.7811 10.6352 13.6361 9.72018L21.5111 1.36518C21.7961 1.06518 22.2761 1.05018 22.5761 1.33518C22.8761 1.62018 22.8911 2.10018 22.6061 2.40018L14.7311 10.7702C14.0111 11.5352 13.0511 11.9552 12.0011 11.9552V11.9402Z" fill="#69C5D3"/>
</svg>
