<svg width="206" height="60" viewBox="0 0 206 60" fill="none" xmlns="http://www.w3.org/2000/svg">
<path d="M71.1757 33.2408C69.4217 32.2691 68.4986 31.4824 68.4986 30.3718C68.4986 28.9373 69.7448 28.0581 71.7296 28.0581C74.0374 28.0581 76.0683 29.0299 76.0683 29.0299L77.6839 24.0785C77.6839 24.0785 76.2068 22.9216 71.8219 22.9216C65.7291 22.9216 61.4826 26.4385 61.4826 31.3436C61.4826 34.1201 63.4674 36.2487 66.0984 37.7757C68.2216 38.9789 68.9601 39.8581 68.9601 41.1075C68.9601 42.4495 67.8985 43.5138 65.9137 43.5138C62.9597 43.5138 60.1902 41.9867 60.1902 41.9867L58.4824 46.9381C58.4824 46.9381 61.0672 48.6503 65.3599 48.6503C71.6373 48.6503 76.1145 45.5499 76.1145 39.9969C76.2068 36.9428 73.899 34.8142 71.1757 33.2408Z" fill="#585858"/>
<path d="M96.1932 22.829C93.1006 22.829 90.7005 24.3098 88.808 26.531L88.7157 26.4847L91.3928 12.4172H84.3769L77.5918 48.1874H84.5615L86.8694 35.971C87.7926 31.3435 90.1466 28.5208 92.3621 28.5208C93.9315 28.5208 94.5315 29.5851 94.5315 31.1121C94.5315 32.0839 94.4392 33.2408 94.2084 34.2125L91.5775 48.2337H98.5472L101.27 33.7961C101.594 32.269 101.778 30.4643 101.778 29.2149C101.871 25.189 99.8396 22.829 96.1932 22.829Z" fill="#585858"/>
<path d="M117.656 22.8291C109.255 22.8291 103.67 30.4181 103.67 38.8864C103.67 44.3005 106.993 48.6966 113.271 48.6966C121.533 48.6966 127.072 41.2926 127.072 32.6393C127.118 27.5954 124.21 22.8291 117.656 22.8291ZM114.24 43.2824C111.84 43.2824 110.87 41.2464 110.87 38.7013C110.87 34.6754 112.948 28.1507 116.732 28.1507C119.225 28.1507 120.01 30.2793 120.01 32.3616C120.01 36.7115 117.933 43.2824 114.24 43.2824Z" fill="#585858"/>
<path d="M144.982 22.8291C140.274 22.8291 137.596 26.9938 137.596 26.9938H137.504L137.92 23.2456H131.734C131.411 25.7907 130.857 29.6315 130.304 32.5467L125.457 58.0903H132.427L134.365 47.7248H134.504C134.504 47.7248 135.935 48.6503 138.612 48.6503C146.828 48.6503 152.182 40.2283 152.182 31.7138C152.182 27.0401 150.105 22.8291 144.982 22.8291ZM138.335 43.4213C136.535 43.4213 135.473 42.4032 135.473 42.4032L136.627 35.8785C137.458 31.5287 139.72 28.6134 142.12 28.6134C144.243 28.6134 144.889 30.6032 144.889 32.4542C144.889 36.9428 142.212 43.4213 138.335 43.4213Z" fill="#585858"/>
<path d="M162.151 12.7876C159.936 12.7876 158.136 14.546 158.136 16.8598C158.136 18.9421 159.428 20.3766 161.413 20.3766H161.505C163.675 20.3766 165.567 18.8958 165.613 16.3045C165.659 14.2221 164.275 12.7876 162.151 12.7876Z" fill="#585858"/>
<path d="M152.366 48.1874H159.382L164.136 23.3843H157.074L152.366 48.1874Z" fill="#585858"/>
<path d="M181.861 23.3381H177.014L177.245 22.1813C177.66 19.775 179.045 17.6464 181.399 17.6464C182.645 17.6464 183.615 18.0166 183.615 18.0166L184.999 12.5562C184.999 12.5562 183.799 11.9546 181.214 11.9546C178.722 11.9546 176.276 12.6487 174.383 14.2683C171.983 16.3044 170.875 19.2197 170.321 22.1813L170.137 23.3381H166.906L165.89 28.6134H169.121L165.429 48.1875H172.398L176.091 28.6134H180.891L181.861 23.3381Z" fill="#585858"/>
<path d="M198.662 23.3843C198.662 23.3843 194.277 34.3976 192.338 40.4133H192.246C192.108 38.4698 190.538 23.3843 190.538 23.3843H183.199L187.399 46.1513C187.492 46.6604 187.446 46.9843 187.261 47.3082C186.43 48.8815 185.092 50.4086 183.476 51.5192C182.184 52.4909 180.707 53.0925 179.553 53.509L181.491 59.4321C182.922 59.1082 185.83 57.9513 188.323 55.6376C191.507 52.6298 194.462 48.0486 197.462 41.7553L206.001 23.3843H198.662Z" fill="#585858"/>
<path d="M34.4341 7.28083C34.4341 7.28083 33.7879 7.46592 32.7262 7.78984C32.5416 7.18828 32.2647 6.49416 31.8954 5.75377C30.6953 3.44004 28.8952 2.19063 26.7719 2.19063C26.6335 2.19063 26.495 2.19063 26.3104 2.2369C26.2642 2.14436 26.1719 2.09808 26.1257 2.00553C25.2026 0.987492 24.0025 0.524747 22.5716 0.571022C19.8022 0.663571 17.0328 2.65337 14.8172 6.21651C13.2479 8.71533 12.0478 11.862 11.7247 14.3146C8.53982 15.2863 6.32427 15.9804 6.27811 16.0267C4.6626 16.5357 4.61645 16.582 4.43182 18.1091C4.29335 19.2659 0.046875 51.8432 0.046875 51.8432L34.9418 57.9051V7.23455C34.6648 7.23455 34.5264 7.28083 34.4341 7.28083ZM26.3565 9.77965C24.5102 10.3349 22.4793 10.9828 20.4946 11.5844C21.0484 9.40945 22.1562 7.23455 23.4486 5.80004C23.9564 5.29102 24.6487 4.68945 25.4334 4.31926C26.2181 5.98514 26.4027 8.25259 26.3565 9.77965ZM22.5716 2.46828C23.2178 2.46828 23.7717 2.6071 24.2333 2.88475C23.4948 3.25494 22.7563 3.85651 22.0639 4.55063C20.3099 6.44788 18.9714 9.40945 18.4175 12.2322C16.7558 12.7412 15.0942 13.2502 13.571 13.713C14.5864 9.27063 18.3252 2.56083 22.5716 2.46828ZM17.2174 27.9193C17.402 30.8808 25.2026 31.5287 25.6642 38.5161C25.9873 44.0228 22.7563 47.771 18.0944 48.0487C12.4632 48.4189 9.37065 45.0871 9.37065 45.0871L10.5707 39.9969C10.5707 39.9969 13.6633 42.3569 16.1558 42.1718C17.7713 42.0793 18.3713 40.7373 18.3252 39.8118C18.0944 35.9247 11.7247 36.1561 11.3093 29.7702C10.94 24.4024 14.448 18.9883 22.2024 18.4793C25.2026 18.2942 26.7258 19.0346 26.7258 19.0346L24.9718 25.6981C24.9718 25.6981 22.987 24.7726 20.633 24.9577C17.2174 25.1891 17.1712 27.364 17.2174 27.9193ZM28.2028 9.22435C28.2028 7.83612 28.0182 5.84632 27.372 4.18043C29.4952 4.5969 30.5107 6.9569 30.9723 8.39141C30.1414 8.62279 29.2183 8.90043 28.2028 9.22435Z" fill="#585858"/>
<path d="M36.0029 57.8125L50.4963 54.2031C50.4963 54.2031 44.2651 11.9545 44.2189 11.6769C44.1728 11.3992 43.942 11.2141 43.7112 11.2141C43.4804 11.2141 39.4186 11.1216 39.4186 11.1216C39.4186 11.1216 36.9261 8.71529 36.0029 7.78979V57.8125Z" fill="#585858"/>
</svg>
