<svg width="192" height="193" viewBox="0 0 192 193" fill="none" xmlns="http://www.w3.org/2000/svg">
<path d="M18.1601 40.8037C5.71421 58.2276 -0.525829 79.3236 0.438943 100.714C1.40371 122.105 9.5175 142.554 23.4814 158.787C37.4453 175.019 56.4518 186.098 77.4582 190.248C98.4646 194.399 120.256 191.381 139.344 181.679C158.433 171.976 173.713 156.15 182.741 136.733C191.768 117.317 194.02 95.433 189.136 74.585C184.252 53.7369 172.514 35.1304 155.802 21.744C139.09 8.35766 118.369 0.965574 96.9578 0.751135L96.9102 5.50082C117.258 5.70461 136.95 12.7296 152.832 25.4513C168.715 38.173 179.87 55.8556 184.511 75.6684C189.153 95.4812 187.013 116.279 178.434 134.731C169.855 153.183 155.332 168.224 137.192 177.444C119.052 186.665 98.3423 189.533 78.3789 185.588C58.4156 181.644 40.3529 171.116 27.0823 155.689C13.8118 140.262 6.10091 120.829 5.18404 100.5C4.26718 80.1717 10.1974 60.1233 22.0253 43.5645L18.1601 40.8037Z" fill="#B4D62F"/>
<g clip-path="url(#clip0_48_8450)">
<path d="M89.475 108.126C89.4636 108.099 89.4527 108.072 89.4413 108.045C88.9278 107.904 88.4201 107.748 87.9193 107.578C87.9073 107.574 87.8952 107.57 87.8832 107.566C86.0968 106.955 84.3964 106.158 82.805 105.199C75.1132 100.565 69.9688 92.1313 69.9688 82.4963C69.9688 67.8677 81.8277 56.0088 96.4563 56.0088C110.128 56.0088 121.38 66.3665 122.794 79.6628C122.96 81.2214 121.673 82.4963 120.106 82.4963C118.539 82.4963 117.288 81.2186 117.077 79.6656C115.696 69.5107 106.99 61.6847 96.4563 61.6847C84.9624 61.6847 75.6447 71.0023 75.6447 82.4963C75.6447 91.5645 81.4445 99.278 89.537 102.13C90.7146 99.4801 93.3694 97.632 96.4563 97.632C100.636 97.632 104.024 101.02 104.024 105.199C104.024 107.46 103.034 109.489 101.462 110.875C100.128 112.053 98.3759 112.768 96.4563 112.768C94.4732 112.768 92.6679 112.005 91.3185 110.757C90.53 110.027 89.8969 109.132 89.475 108.126ZM81.3101 110.875C78.5106 109.378 75.9583 107.479 73.7305 105.255C69.4918 105.741 66.1997 109.341 66.1997 113.709V115.895C66.1997 119.273 67.4049 122.54 69.5987 125.11C75.5255 132.05 84.554 135.475 96.4579 135.475C108.359 135.475 117.392 132.051 123.331 125.114C125.531 122.543 126.741 119.27 126.741 115.886V113.709C126.741 109.01 122.931 105.199 118.231 105.199H109.7C109.7 107.231 109.243 109.155 108.426 110.875H118.231C119.796 110.875 121.065 112.144 121.065 113.709V115.886C121.065 117.917 120.339 119.88 119.019 121.423C114.265 126.977 106.819 129.8 96.4579 129.8C86.0962 129.8 78.6574 126.978 73.915 121.424C72.5987 119.882 71.8756 117.922 71.8756 115.895V113.709C71.8756 112.144 73.1443 110.875 74.7093 110.875H81.3101ZM81.3206 82.4963C81.3206 74.1371 88.0971 67.3606 96.4563 67.3606C100.156 67.3606 103.547 68.6888 106.177 70.8941C109.487 73.6706 111.592 77.8376 111.592 82.4963C111.592 87.7108 108.955 92.3095 104.942 95.0313C102.644 93.1113 99.6852 91.9561 96.4563 91.9561C101.681 91.9561 105.916 87.7208 105.916 82.4963C105.916 77.2718 101.681 73.0365 96.4563 73.0365C91.2319 73.0365 86.9965 77.2718 86.9965 82.4963C86.9965 87.7208 91.2319 91.9561 96.4563 91.9561C93.2241 91.9561 90.267 93.1136 87.9713 95.0317C85.733 93.514 83.9227 91.412 82.7592 88.945C81.8363 86.9876 81.3206 84.8013 81.3206 82.4963Z" fill="#222222"/>
</g>
<path d="M96.9981 0.751547C81.5712 0.590538 66.3342 4.16323 52.5868 11.1649C38.8393 18.1666 26.9893 28.3895 18.0475 40.9617L21.9182 43.7147C30.4161 31.7668 41.6776 22.0515 54.7425 15.3975C67.8073 8.74349 82.2877 5.3482 96.9486 5.50121L96.9981 0.751547Z" fill="white"/>
<defs>
<clipPath id="clip0_48_8450">
<rect width="79.4667" height="79.4667" fill="white" transform="translate(56.9282 56.0088)"/>
</clipPath>
</defs>
</svg>
