<svg width="206" height="52" viewBox="0 0 206 52" fill="none" xmlns="http://www.w3.org/2000/svg">
<path fill-rule="evenodd" clip-rule="evenodd" d="M114.442 32.8293C114.442 33.2437 114.41 33.658 114.283 34.0087C114.002 34.8371 113.468 35.5548 112.756 36.0587C112.044 36.5626 111.192 36.8269 110.322 36.8137C108.706 36.8137 107.422 35.8893 107.422 33.913C107.422 30.9168 110.702 30.088 114.442 30.104V32.8293ZM120.305 27.6018C120.305 22.6612 118.197 18.2943 111.098 18.2943C107.454 18.2943 104.554 19.3143 102.969 20.2387L104.126 24.223C105.921 23.1521 107.965 22.575 110.053 22.5496C113.665 22.5496 114.252 24.6055 114.252 25.9124V26.2312C106.392 26.2312 101.416 28.9565 101.416 34.5346C101.416 37.9452 103.952 41.1327 108.357 41.1327C111.051 41.1327 113.317 40.049 114.68 38.3118H114.806C114.806 38.3118 115.71 42.089 120.669 40.6387C120.4 39.0609 120.305 37.3874 120.305 35.3793V27.6018ZM0.000976562 11.5527L5.95913 36.1443C6.9099 40.1605 8.63713 41.6427 13.597 40.6387L16.8137 27.5221C17.6219 24.2549 18.1765 21.944 18.6994 18.613H18.7787C19.159 21.9599 19.6819 24.2709 20.3474 27.538L22.3124 36.6224C22.9937 39.7462 24.8477 41.7224 29.7284 40.6387L37.3662 11.5527H31.1862L28.5874 24.1274C27.8744 27.793 27.2405 30.6618 26.7493 34.0087H26.6701C26.2264 30.6777 25.6559 27.9365 24.927 24.3665L22.2331 11.5527H15.7996L12.8839 24.0318C12.0757 27.8249 11.2993 30.8849 10.8239 34.1202H10.7288C10.2217 31.0921 9.55621 27.2193 8.82728 23.5537L6.4979 11.5527H0.000976562ZM48.6645 32.8293C48.6645 33.2437 48.6328 33.658 48.5061 34.0087C48.225 34.8371 47.6902 35.5548 46.9785 36.0587C46.2668 36.5626 45.4148 36.8269 44.5445 36.8137C42.9282 36.8137 41.6447 35.8893 41.6447 33.913C41.6447 30.9168 44.9248 30.088 48.6645 30.104V32.8293ZM54.5276 27.6018C54.5276 22.6612 52.4359 18.2943 45.3368 18.2943C41.6922 18.2943 38.7765 19.3143 37.1919 20.2387L38.3487 24.223C40.1443 23.1528 42.188 22.5758 44.2751 22.5496C47.8881 22.5496 48.4744 24.6055 48.4744 25.9124V26.2312C40.6147 26.2312 35.639 28.9565 35.639 34.5346C35.639 37.9452 38.1744 41.1327 42.5796 41.1327C45.2734 41.1327 47.5394 40.049 48.9022 38.3118H49.029C49.029 38.3118 49.9322 42.089 54.8921 40.6387C54.6227 39.0609 54.5276 37.3874 54.5276 35.3793V27.6018ZM63.6074 34.4549V11.5687H57.7444V40.6546H63.6074V34.4709M138.338 11.5687V33.0205C138.338 35.9849 138.893 38.0568 140.081 39.3159C141.111 40.4315 142.807 41.1487 144.851 41.1487C146.594 41.1487 148.289 40.8299 149.097 40.5112L149.034 35.8893C148.432 36.0487 147.735 36.1602 146.8 36.1602C144.803 36.1602 144.122 34.8852 144.122 32.2237V24.0159H149.24V18.4377H144.122V11.5527H138.338M123.173 18.7884V40.6387H129.226V29.4505C129.226 28.8449 129.274 28.3349 129.369 27.8409C129.813 25.498 131.587 23.9999 134.155 23.9999C134.852 23.9999 135.359 24.0637 135.898 24.1593V18.4218C135.46 18.3281 135.014 18.2853 134.567 18.2943C132.301 18.2943 129.733 19.7605 128.656 22.9162H128.497V18.7724H123.173M67.0302 18.7724V40.6387H72.8933V27.8249C72.8933 27.2193 72.9725 26.5818 73.1785 26.0399C73.6539 24.749 74.8582 23.2349 76.7597 23.2349C79.1367 23.2349 80.2617 25.259 80.2617 28.1755V40.6387H86.1565V27.6655C86.1565 27.0918 86.2357 26.3905 86.41 25.8965C86.6414 25.1266 87.1131 24.4521 87.7552 23.9728C88.3973 23.4935 89.1758 23.2347 89.9754 23.2349C92.384 23.2349 93.5408 25.2271 93.5408 28.6537V40.6387H99.4514V27.7612C99.4514 20.9877 96.0128 18.2943 92.1622 18.2943C90.435 18.2943 89.0881 18.7246 87.8679 19.4737C86.8379 20.1112 85.903 21.0196 85.1107 22.199H85.0156C84.5423 21.0076 83.714 19.9928 82.6444 19.2937C81.5748 18.5945 80.3163 18.2455 79.0416 18.2943C77.7695 18.2186 76.5017 18.5024 75.3815 19.1136C74.2614 19.7247 73.3336 20.6389 72.7031 21.7527H72.6239V18.7884H67.0144" fill="#585858"/>
<path fill-rule="evenodd" clip-rule="evenodd" d="M180.964 17.8161C182.136 17.8161 183.087 17.1946 183.23 16.4136L184.371 3.28111C184.371 1.99018 182.865 0.922363 180.964 0.922363C179.062 0.922363 177.557 1.99018 177.557 3.28111L178.713 16.4136C178.84 17.2105 179.807 17.8002 180.964 17.8002M173.912 21.9121C174.498 20.8921 174.451 19.7446 173.833 19.2346L163.105 11.6802C161.996 11.0267 160.332 11.8077 159.381 13.4652C158.43 15.1227 158.589 16.9714 159.698 17.6089L171.583 23.1711C172.327 23.4421 173.326 22.9161 173.912 21.8961M188.015 21.8961C188.601 22.9161 189.6 23.4421 190.36 23.1711L202.229 17.6089C203.338 16.9714 203.497 15.1227 202.562 13.4652C201.611 11.8077 199.931 11.0267 198.822 11.6802L188.094 19.2346C187.492 19.7446 187.445 20.8921 188.031 21.9121M180.964 34.1839C182.136 34.1839 183.087 34.8055 183.23 35.5864L184.371 48.7189C184.371 50.0099 182.865 51.0777 180.964 51.0777C179.062 51.0777 177.557 50.0099 177.557 48.7189L178.713 35.5864C178.84 34.7896 179.807 34.1999 180.964 34.1999M188.015 30.1039C188.601 29.0839 189.6 28.558 190.36 28.8289L202.229 34.3911C203.338 35.0286 203.497 36.8933 202.562 38.5349C201.611 40.1924 199.931 40.9733 198.822 40.3199L188.094 32.7655C187.492 32.2555 187.445 31.108 188.031 30.1039M173.912 30.1039C174.498 31.108 174.451 32.2555 173.833 32.7655L163.105 40.3199C161.996 40.9574 160.332 40.1924 159.381 38.5349C158.43 36.8774 158.589 35.0286 159.698 34.3911L171.583 28.8289C172.327 28.558 173.326 29.0839 173.912 30.1039ZM204.733 39.1724H204.844C204.971 39.1724 205.081 39.1245 205.081 39.013C205.081 38.9174 205.018 38.8536 204.86 38.8536H204.733V39.1724ZM204.733 39.7461H204.479V38.7102L204.875 38.6783C205.081 38.6783 205.161 38.7102 205.24 38.758C205.303 38.8058 205.351 38.8855 205.351 38.9811C205.351 39.1086 205.256 39.1883 205.129 39.2361C205.224 39.268 205.287 39.3636 205.319 39.4911C205.351 39.6505 205.367 39.7142 205.398 39.7461H205.145C205.113 39.7142 205.081 39.6186 205.05 39.507C205.034 39.3955 204.971 39.3477 204.844 39.3477H204.717V39.7621L204.733 39.7461ZM204.891 38.3755C204.416 38.3755 204.083 38.758 204.083 39.2202C204.083 39.6824 204.432 40.0489 204.891 40.0489C205.351 40.0489 205.684 39.6824 205.684 39.2202C205.69 39.1116 205.674 39.0028 205.637 38.9005C205.601 38.7983 205.543 38.7047 205.469 38.6255C205.395 38.5464 205.305 38.4834 205.206 38.4404C205.107 38.3974 204.999 38.3753 204.891 38.3755ZM204.891 38.1683C205.493 38.1683 205.953 38.6305 205.953 39.2202C205.953 39.8099 205.478 40.2721 204.891 40.2721C204.751 40.2763 204.612 40.2523 204.481 40.2013C204.351 40.1504 204.232 40.0736 204.131 39.9755C204.031 39.8774 203.951 39.76 203.896 39.6302C203.842 39.5005 203.814 39.361 203.814 39.2202C203.814 38.6305 204.289 38.1683 204.891 38.1683Z" fill="#585858"/>
</svg>
