<svg width="24" height="24" viewBox="0 0 24 24" fill="none" xmlns="http://www.w3.org/2000/svg">
<path d="M0 1.02857C0 0.460512 0.460512 0 1.02857 0H1.79419C3.09769 0 3.87815 0.876329 4.32446 1.69096C4.62193 2.23397 4.83714 2.86379 5.00547 3.43399C5.05105 3.43041 5.09724 3.42857 5.14395 3.42857H22.2831C23.4217 3.42857 24.2438 4.51806 23.9317 5.61298L21.425 14.4026C20.9631 16.0227 19.4828 17.1398 17.7983 17.1398H9.64083C7.94233 17.1398 6.45339 16.0044 6.00388 14.3665L4.96092 10.5662L3.23484 4.73936L3.23205 4.72915C3.01851 3.95041 2.81811 3.22293 2.52032 2.67936C2.23112 2.1515 2.0006 2.05714 1.79419 2.05714H1.02857C0.460512 2.05714 0 1.59663 0 1.02857ZM6.95702 10.0667L7.98767 13.8221C8.192 14.5666 8.86878 15.0827 9.64083 15.0827H17.7983C18.5639 15.0827 19.2368 14.5749 19.4469 13.8385L21.8288 5.48571H5.60296L6.93814 9.99333C6.94538 10.0177 6.95166 10.0421 6.95702 10.0667ZM11.6571 21.2571C11.6571 22.772 10.4292 24 8.91429 24C7.39945 24 6.17143 22.772 6.17143 21.2571C6.17143 19.7423 7.39945 18.5143 8.91429 18.5143C10.4292 18.5143 11.6571 19.7423 11.6571 21.2571ZM9.6 21.2571C9.6 20.8785 9.29299 20.5714 8.91429 20.5714C8.53558 20.5714 8.22857 20.8785 8.22857 21.2571C8.22857 21.6358 8.53558 21.9429 8.91429 21.9429C9.29299 21.9429 9.6 21.6358 9.6 21.2571ZM21.2571 21.2571C21.2571 22.772 20.0292 24 18.5143 24C16.9994 24 15.7714 22.772 15.7714 21.2571C15.7714 19.7423 16.9994 18.5143 18.5143 18.5143C20.0292 18.5143 21.2571 19.7423 21.2571 21.2571ZM19.2 21.2571C19.2 20.8785 18.8929 20.5714 18.5143 20.5714C18.1356 20.5714 17.8286 20.8785 17.8286 21.2571C17.8286 21.6358 18.1356 21.9429 18.5143 21.9429C18.8929 21.9429 19.2 21.6358 19.2 21.2571Z" fill="white"/>
<path d="M6.95702 10.0667L7.98767 13.8221C8.192 14.5666 8.86878 15.0827 9.64083 15.0827H17.7983C18.5639 15.0827 19.2368 14.5749 19.4469 13.8385L21.8288 5.48571H5.60296L6.93814 9.99333C6.94538 10.0177 6.95166 10.0421 6.95702 10.0667Z" fill="#222222"/>
</svg>
